<svg xmlns="http://www.w3.org/2000/svg" width="17.814" height="24.471" viewBox="0 0 17.814 24.471">
  <g id="unlock" transform="translate(-69.082 0)">
    <path id="Trazado_13" data-name="Trazado 13" d="M78,24.471A8.891,8.891,0,0,0,83.559,8.637V5.561A5.562,5.562,0,0,0,73.181,2.781a1.112,1.112,0,0,0,1.877,1.193q.025-.04.047-.081a3.337,3.337,0,0,1,6.229,1.669V7.329A8.9,8.9,0,1,0,78,24.471ZM78,8.9a6.674,6.674,0,1,1-6.674,6.674A6.674,6.674,0,0,1,78,8.9Z" fill="#fff"/>
    <path id="Trazado_14" data-name="Trazado 14" d="M209.054,257.889v2.533a1.112,1.112,0,0,0,2.225,0v-2.533a2.225,2.225,0,1,0-2.225,0Z" transform="translate(-132.169 -241.512)" fill="#fff"/>
  </g>
</svg>
