<svg xmlns="http://www.w3.org/2000/svg" width="181.399" height="71.187" viewBox="0 0 181.399 71.187">
  <g id="Grupo_6" data-name="Grupo 6" transform="translate(-163.13 -125)">
    <g id="Grupo_4" data-name="Grupo 4" transform="translate(164.337 125)">
      <g id="Grupo_1" data-name="Grupo 1" transform="translate(72.297 3.719)">
        <path id="Trazado_1" data-name="Trazado 1" d="M329.792,209.908l-.8,4.344a1.484,1.484,0,0,1-.456.751,1.124,1.124,0,0,1-.78.32h-4.4l-2.785,15.609a9.53,9.53,0,0,0-.164,1.5.9.9,0,0,0,.321.8,2.306,2.306,0,0,0,1.184.216h2.628a1.334,1.334,0,0,1,.693.161.632.632,0,0,1,.271.591v.159l-.751,4.182a1.261,1.261,0,0,1-1.181,1.07c-.821.146-1.551.252-2.2.324a20.324,20.324,0,0,1-2.138.107,9.3,9.3,0,0,1-5.624-1.451c-1.293-.961-1.946-2.625-1.946-4.984a11.63,11.63,0,0,1,.08-1.287c.055-.466.117-.947.188-1.448l2.721-15.555-4.17-.694c-.6-.108-.91-.431-.91-.967V213.5l.591-3.539a1.509,1.509,0,0,1,.51-.777,1.265,1.265,0,0,1,.833-.351h4.266l.744-4.394a1.2,1.2,0,0,1,.453-.7,2,2,0,0,1,.826-.375l6.742-1.128h.156c.537,0,.807.249.807.751v.162l-1.019,5.682h4.4a.807.807,0,0,1,.911.914Z" transform="translate(-309.576 -202.241)" fill="#fff"/>
        <path id="Trazado_2" data-name="Trazado 2" d="M361.765,210.706l-5.04,28.526a1.53,1.53,0,0,1-.456.753,1.127,1.127,0,0,1-.778.322h-6c-.613,0-.915-.285-.915-.858v-.217l.27-1.284a23.03,23.03,0,0,1-3.809,2.037,12.314,12.314,0,0,1-4.72.8,7.988,7.988,0,0,1-6.194-2.359,9.387,9.387,0,0,1-2.172-6.6,18.059,18.059,0,0,1,.324-3.273l3.109-17.855a1.485,1.485,0,0,1,.511-.777,1.254,1.254,0,0,1,.828-.351h6.491a.777.777,0,0,1,.643.27,1,1,0,0,1,.214.644v.215l-3.11,17.855a14.341,14.341,0,0,0-.27,2.467,2.4,2.4,0,0,0,.725,1.98,4.173,4.173,0,0,0,2.6.6,6.106,6.106,0,0,0,1.047-.135,12.49,12.49,0,0,0,1.422-.379q.751-.24,1.5-.56a12.791,12.791,0,0,0,1.4-.7l3.7-21.127a1.583,1.583,0,0,1,.483-.777,1.165,1.165,0,0,1,.8-.351h6.487a.854.854,0,0,1,.671.27.994.994,0,0,1,.243.7Z" transform="translate(-311.839 -202.983)" fill="#fff"/>
        <path id="Trazado_3" data-name="Trazado 3" d="M426.44,219.933a15.343,15.343,0,0,1-.109,1.688,13.294,13.294,0,0,1-.218,1.421l-.7,3.757q-1.288,6.864-5.025,10.4t-10.88,3.538a13.152,13.152,0,0,1-4.836-.828,10.435,10.435,0,0,1-3.547-2.281,9.3,9.3,0,0,1-2.177-3.462,12.8,12.8,0,0,1-.723-4.365c0-.505.015-1,.056-1.5a10.7,10.7,0,0,1,.216-1.5l.7-3.757q1.344-7.283,5.265-10.615T415.1,209.1q5.474,0,8.41,2.954A10.691,10.691,0,0,1,426.44,219.933Zm-8.741.644c0-2.715-1.31-4.075-3.914-4.075a5.134,5.134,0,0,0-3.836,1.5,9.617,9.617,0,0,0-2.119,5.038l-.7,3.757q-.105.754-.188,1.366a9.171,9.171,0,0,0-.081,1.21,4.172,4.172,0,0,0,.965,3.052,4.081,4.081,0,0,0,3,.968,4.8,4.8,0,0,0,3.969-1.662,10.971,10.971,0,0,0,1.932-4.935l.694-3.757A14.305,14.305,0,0,0,417.7,220.576Z" transform="translate(-318.544 -202.935)" fill="#fff"/>
        <path id="Trazado_4" data-name="Trazado 4" d="M396.741,209.85a.829.829,0,0,0-.617-.244H388.88a1.2,1.2,0,0,0-.778.3,1.725,1.725,0,0,0-.506.719l-7.623,18.429-3.327-18.429a1.71,1.71,0,0,0-.239-.719.679.679,0,0,0-.617-.3h-7.027c-.823,0-1.232.36-1.232,1.075v.156s5.876,26.324,6.154,27c.645,1.554,1,1.7,1.705,1.821l-.888,1.979a5.14,5.14,0,0,1-1.663,2.2,4.276,4.276,0,0,1-2.36.591c-.426,0-.94-.021-1.528-.056s-1.2-.077-1.826-.136-1.223-.1-1.8-.127-1.072-.075-1.5-.109h-.1a1.176,1.176,0,0,0-.781.294,1.319,1.319,0,0,0-.455.721l-.805,4.349v.16a.59.59,0,0,0,.269.509,2.071,2.071,0,0,0,.7.294,10.6,10.6,0,0,0,1.29.324c.531.1,1.109.2,1.713.271s1.226.133,1.853.184,1.19.081,1.693.081a21.684,21.684,0,0,0,4.962-.482,9.585,9.585,0,0,0,3.43-1.525,10.284,10.284,0,0,0,2.5-2.714,37.874,37.874,0,0,0,2.2-4.023l14.588-31.6a1.56,1.56,0,0,0,.11-.427A.777.777,0,0,0,396.741,209.85Z" transform="translate(-314.847 -202.986)" fill="#fff"/>
      </g>
      <path id="Trazado_5" data-name="Trazado 5" d="M280.9,226.653" transform="translate(-234.379 -200.992)" fill="#fff"/>
      <path id="Trazado_6" data-name="Trazado 6" d="M257.11,209.809a13.435,13.435,0,0,0-2.928,1.336c.053-.331.086-.514.086-.514a1.08,1.08,0,0,0-.2-.764.8.8,0,0,0-.679-.329H246.9a1.534,1.534,0,0,0-.822.247,1.164,1.164,0,0,0-.481.846s-3.269,18.24-4.044,22.72A10.72,10.72,0,0,1,240.5,236.6a7.915,7.915,0,0,1-4.4,3.861,7.228,7.228,0,0,1-1.494.369h8.855a7.913,7.913,0,0,0,5.963-4.366,10.423,10.423,0,0,0,.621-1.9c.087-.387.17-.792.24-1.213.517-3.082,1.814-9.939,2.721-15.345a17.8,17.8,0,0,1,2.2-.986,9.83,9.83,0,0,1,3.095-.594l1.25-7.173A15.45,15.45,0,0,0,257.11,209.809Z" transform="translate(-229.695 -199.232)" fill="#fff"/>
      <path id="Trazado_7" data-name="Trazado 7" d="M273.2,226.649" transform="translate(-233.6 -200.992)" fill="#fff"/>
      <path id="Trazado_8" data-name="Trazado 8" d="M273.355,240.375c-1.6-.7-3.672-2.494-2.87-7.042.271-1.578.85-4.865,1.481-8.462.235-1.31,1.024-5.938,1.024-6.723a10.806,10.806,0,0,0-.711-4.125,8.058,8.058,0,0,0-1.441-2.328c-.15-.169-.3-.333-.467-.483a7.623,7.623,0,0,0-2.816-1.609c-.092-.03-.181-.056-.272-.084a10.939,10.939,0,0,0-3.082-.438,13.669,13.669,0,0,0-1.99.153l-1.25,7.173c.059,0,.12-.009.18-.009a3.663,3.663,0,0,1,2.1.576,2.359,2.359,0,0,1,.846,2.1,14.408,14.408,0,0,1-.273,2.4s.2-1.461.085-.756c-.749,4.234-1.848,10.378-2.243,12.611-.073.421-.129.825-.173,1.213-.005.079-.007.154-.012.233-.272,5.622,4.52,6.034,4.678,6.045h8.01l.813,0A5.485,5.485,0,0,1,273.355,240.375Z" transform="translate(-232.362 -199.215)" fill="#fff"/>
      <path id="Trazado_9" data-name="Trazado 9" d="M242.694,240.873s-5.78-.377-4.523-7.49c.766-4.48,4.011-22.72,4.011-22.72a.832.832,0,0,0-.192-.846,1.135,1.135,0,0,0-.733-.247h-6.65a1.127,1.127,0,0,0-.79.331,1.515,1.515,0,0,0-.465.762s-3.053,17.314-4.009,22.72c-.075.421-.131.825-.173,1.213-.424,5.846,4.505,6.265,4.664,6.278h8.861Z" transform="translate(-229.143 -199.264)" fill="#fff"/>
      <path id="Trazado_10" data-name="Trazado 10" d="M286.42,211.18c.057-.333.086-.517.086-.517a1.037,1.037,0,0,0-.2-.762.776.776,0,0,0-.676-.331h-6.4a1.526,1.526,0,0,0-.82.247,1.167,1.167,0,0,0-.479.846s-3.286,18.24-4.06,22.72a10.9,10.9,0,0,1-1.052,3.245,7.946,7.946,0,0,1-4.405,3.861,7.268,7.268,0,0,1-1.494.369h8.849a7.91,7.91,0,0,0,5.965-4.366,10.034,10.034,0,0,0,.72-1.9q.136-.581.244-1.213c.519-3.082,1.682-10.03,2.59-15.438a19.876,19.876,0,0,1,2.505-.983V210.45A13.569,13.569,0,0,0,286.42,211.18Z" transform="translate(-232.964 -199.264)" fill="#fff"/>
      <path id="Trazado_11" data-name="Trazado 11" d="M295.693,217.562a3.369,3.369,0,0,1,.321,1.515,14.623,14.623,0,0,1-.274,2.4s-.318,1.9-.736,4.38l-2.344,13.383v.218a1,1,0,0,0,.218.654.786.786,0,0,0,.658.273h6.608a1.281,1.281,0,0,0,.842-.352,1.533,1.533,0,0,0,.52-.793l.46-2.585,2.638-15.146a18.956,18.956,0,0,0,.329-3.329,10.766,10.766,0,0,0-.713-4.124c-.1-.235-.2-.461-.314-.679a.086.086,0,0,0-.012-.019c-.1-.2-.212-.4-.324-.582-.011-.017-.024-.033-.033-.049-.1-.168-.214-.326-.324-.48-.018-.022-.031-.043-.048-.065-.109-.142-.221-.278-.336-.411-.023-.025-.042-.052-.066-.078-.153-.169-.306-.333-.471-.483a7.63,7.63,0,0,0-2.814-1.609,10.786,10.786,0,0,0-3.355-.521,13.267,13.267,0,0,0-1.989.156l-.007.03.007-.03a15.1,15.1,0,0,0-2.437.555,13.873,13.873,0,0,0-1.56.608v6.512C294.063,215.688,295.415,217.005,295.693,217.562Z" transform="translate(-235.313 -199.215)" fill="#fff"/>
      <g id="Grupo_2" data-name="Grupo 2" transform="translate(5.186)">
        <path id="Trazado_12" data-name="Trazado 12" d="M235.769,205.1c-.661,0-.941-.351-.833-1.053l.833-4.894a1.851,1.851,0,0,1,.367-.736,1.092,1.092,0,0,1,.887-.316h6.792c.7,0,.974.352.838,1.053l-.838,4.894a1.871,1.871,0,0,1-.365.736,1.093,1.093,0,0,1-.888.317Z" transform="translate(-234.913 -198.104)" fill="#fff"/>
      </g>
    </g>
    <path id="Trazado_15" data-name="Trazado 15" d="M7.56-.315V-1.05c0-.21-.147-.294-.441-.294H5.943c-.84,0-1.134-.168-1.134-1.323V-10H7.077a.421.421,0,0,0,.42-.42v-.714a.421.421,0,0,0-.42-.42H4.809v-2.289a.334.334,0,0,0-.315-.357H4.431l-1.092.168a.427.427,0,0,0-.378.42v2.058H.924a.37.37,0,0,0-.4.378v.567c0,.231.168.357.4.378L2.961-10v7.329c0,2.31.924,2.814,2.856,2.814a10.217,10.217,0,0,0,1.365-.1C7.455,0,7.56-.126,7.56-.315Zm4.074-13.5V-15.5a.421.421,0,0,0-.42-.42H10.143a.421.421,0,0,0-.42.42v1.68a.421.421,0,0,0,.42.42h1.071A.421.421,0,0,0,11.634-13.818ZM11.592-.42V-11.13a.421.421,0,0,0-.42-.42H10.164a.421.421,0,0,0-.42.42V-.42a.421.421,0,0,0,.42.42h1.008A.421.421,0,0,0,11.592-.42ZM21.84-.546V-1.3a.32.32,0,0,0-.357-.315H21.4a20.478,20.478,0,0,1-2.6.147c-1.7,0-2.625-1.134-2.625-3.486V-6.594c0-2.373.945-3.486,2.625-3.486a20.478,20.478,0,0,1,2.6.147h.084a.32.32,0,0,0,.357-.315V-11c0-.294-.084-.4-.42-.462A15.431,15.431,0,0,0,18.8-11.7c-2.877,0-4.473,2.016-4.473,5.1v1.638c0,3.087,1.617,5.1,4.473,5.1A15.23,15.23,0,0,0,21.42-.084C21.756-.147,21.84-.273,21.84-.546Zm10.6.273a.293.293,0,0,0-.063-.189L27.72-6.09l4.62-5a.337.337,0,0,0,.1-.231c0-.126-.1-.231-.315-.231H30.66a.451.451,0,0,0-.42.189l-4.2,4.725v-8.736a.421.421,0,0,0-.42-.42H24.612a.421.421,0,0,0-.42.42V-.42a.421.421,0,0,0,.42.42H25.62a.421.421,0,0,0,.42-.42V-5.439L30.219-.273c.168.21.252.273.483.273h1.512A.244.244,0,0,0,32.445-.273ZM42.777-5.649V-6.783c0-2.982-1.554-4.914-4.62-4.914-3,0-4.662,1.911-4.662,4.914v1.89c0,3.906,2.352,5.04,4.767,5.04A19.044,19.044,0,0,0,42.021-.21c.336-.063.42-.21.42-.483v-.714A.3.3,0,0,0,42.1-1.7H42a28.776,28.776,0,0,1-3.738.231c-1.932,0-2.919-.924-2.919-3.423v-.294h7.035C42.63-5.187,42.777-5.376,42.777-5.649Zm-1.869-.945H35.343v-.189c0-2.268,1.008-3.3,2.814-3.3,1.848,0,2.751.924,2.751,3.3ZM50.8-.315V-1.05c0-.21-.147-.294-.441-.294H49.182c-.84,0-1.134-.168-1.134-1.323V-10h2.268a.421.421,0,0,0,.42-.42v-.714a.421.421,0,0,0-.42-.42H48.048v-2.289a.334.334,0,0,0-.315-.357H47.67l-1.092.168a.427.427,0,0,0-.378.42v2.058H44.163a.37.37,0,0,0-.4.378v.567c0,.231.168.357.4.378L46.2-10v7.329c0,2.31.924,2.814,2.856,2.814a10.217,10.217,0,0,0,1.365-.1C50.694,0,50.8-.126,50.8-.315ZM60.06-2.9c0-1.239-.567-2.142-2.31-3.171L55.671-7.308c-.966-.567-1.449-.966-1.449-1.6,0-1.071.777-1.218,1.953-1.218s2.52.1,3.255.168h.063a.321.321,0,0,0,.357-.357V-11c0-.231-.126-.378-.4-.42a19.675,19.675,0,0,0-3.276-.273c-2.163,0-3.8.609-3.8,2.793,0,1.323.861,2.226,2.142,3l2.121,1.26c1.2.714,1.575,1.113,1.575,1.743,0,1.134-.714,1.491-2.079,1.491-.756,0-2.289-.1-3.3-.231h-.084a.34.34,0,0,0-.378.315v.735c0,.231.168.357.441.42a16.288,16.288,0,0,0,3.318.315C58.485.147,60.06-.756,60.06-2.9Z" transform="translate(162.605 196.04)" fill="#fff"/>
  </g>
</svg>
