<svg xmlns="http://www.w3.org/2000/svg" xmlns:xlink="http://www.w3.org/1999/xlink" width="250.843" height="99.321" viewBox="0 0 250.843 99.321">
  <defs>
    <linearGradient id="linear-gradient" x1="0.48" y1="0.599" x2="0.272" y2="1.049" gradientUnits="objectBoundingBox">
      <stop offset="0" stop-color="#582e77"/>
      <stop offset="0.976" stop-color="#582e77"/>
    </linearGradient>
    <linearGradient id="linear-gradient-2" x1="0.394" y1="0.389" x2="0.636" y2="1.114" gradientUnits="objectBoundingBox">
      <stop offset="0" stop-color="#582e77"/>
      <stop offset="0.421" stop-color="#7c2c76"/>
      <stop offset="0.976" stop-color="#a82b76"/>
    </linearGradient>
    <linearGradient id="linear-gradient-3" x1="0.5" y1="0.603" x2="0.5" y2="0.998" gradientUnits="objectBoundingBox">
      <stop offset="0" stop-color="#582e77"/>
      <stop offset="0.143" stop-color="#5e2d76"/>
      <stop offset="0.349" stop-color="#722d76"/>
      <stop offset="0.592" stop-color="#912b76"/>
      <stop offset="0.741" stop-color="#a82b76"/>
      <stop offset="0.808" stop-color="#922b76"/>
      <stop offset="1" stop-color="#582e77"/>
    </linearGradient>
    <linearGradient id="linear-gradient-4" x1="0.5" y1="0.499" x2="0.5" y2="1.044" gradientUnits="objectBoundingBox">
      <stop offset="0" stop-color="#582e77"/>
      <stop offset="0.218" stop-color="#5a2d76"/>
      <stop offset="0.37" stop-color="#632d76"/>
      <stop offset="0.501" stop-color="#732c76"/>
      <stop offset="0.62" stop-color="#892c76"/>
      <stop offset="0.731" stop-color="#a52b76"/>
      <stop offset="0.741" stop-color="#a82b76"/>
      <stop offset="0.808" stop-color="#922b76"/>
      <stop offset="1" stop-color="#582e77"/>
    </linearGradient>
    <linearGradient id="linear-gradient-5" y1="0.5" x2="1" y2="0.5" gradientUnits="objectBoundingBox">
      <stop offset="0" stop-color="#582e77"/>
      <stop offset="0.879" stop-color="#582e77"/>
      <stop offset="1" stop-color="#582e77"/>
    </linearGradient>
  </defs>
  <g id="Grupo_5" data-name="Grupo 5" transform="translate(-163.344 -125)">
    <g id="Grupo_4" data-name="Grupo 4" transform="translate(-64.143 -73.104)">
      <g id="Grupo_1" data-name="Grupo 1" transform="translate(329.122 203.246)">
        <path id="Trazado_1" data-name="Trazado 1" d="M337.532,212.844l-1.11,6.007a2.052,2.052,0,0,1-.63,1.038,1.554,1.554,0,0,1-1.079.443h-6.08l-3.851,21.586a13.179,13.179,0,0,0-.227,2.076A1.241,1.241,0,0,0,325,245.1a3.189,3.189,0,0,0,1.637.3h3.635a1.844,1.844,0,0,1,.958.223.874.874,0,0,1,.374.818v.22l-1.039,5.784a1.744,1.744,0,0,1-1.633,1.48c-1.135.2-2.144.348-3.038.449a28.109,28.109,0,0,1-2.957.148q-5.083,0-7.777-2.006c-1.787-1.329-2.691-3.63-2.691-6.892a16.082,16.082,0,0,1,.111-1.78c.076-.645.162-1.31.26-2l3.763-21.51-5.766-.96c-.835-.149-1.258-.6-1.258-1.337v-.22l.817-4.894a2.086,2.086,0,0,1,.7-1.075,1.749,1.749,0,0,1,1.152-.486h5.9l1.029-6.077a1.656,1.656,0,0,1,.626-.963,2.763,2.763,0,0,1,1.142-.518l9.324-1.56h.216c.742,0,1.116.344,1.116,1.038v.224l-1.41,7.857h6.08a1.115,1.115,0,0,1,1.259,1.264Z" transform="translate(-309.576 -202.241)" fill="#fff"/>
        <path id="Trazado_2" data-name="Trazado 2" d="M373.182,211.138l-6.97,39.448a2.116,2.116,0,0,1-.63,1.042,1.559,1.559,0,0,1-1.076.445h-8.3c-.848,0-1.265-.394-1.265-1.187v-.3l.373-1.775a31.848,31.848,0,0,1-5.268,2.817,17.029,17.029,0,0,1-6.527,1.112q-5.564,0-8.566-3.262t-3-9.124a24.973,24.973,0,0,1,.449-4.526l4.3-24.691a2.054,2.054,0,0,1,.707-1.075,1.734,1.734,0,0,1,1.145-.486h8.977a1.075,1.075,0,0,1,.889.373,1.39,1.39,0,0,1,.3.891v.3l-4.3,24.691a19.832,19.832,0,0,0-.373,3.412,3.313,3.313,0,0,0,1,2.738,5.771,5.771,0,0,0,3.594.827,8.445,8.445,0,0,0,1.448-.186,17.273,17.273,0,0,0,1.966-.525q1.039-.332,2.073-.774a17.686,17.686,0,0,0,1.93-.966l5.115-29.217a2.189,2.189,0,0,1,.668-1.075,1.611,1.611,0,0,1,1.112-.486h8.971a1.181,1.181,0,0,1,.929.373,1.374,1.374,0,0,1,.336.962Z" transform="translate(-304.139 -200.458)" fill="#fff"/>
        <path id="Trazado_3" data-name="Trazado 3" d="M437.242,224.081a21.218,21.218,0,0,1-.15,2.334,18.4,18.4,0,0,1-.3,1.965l-.963,5.2q-1.781,9.492-6.948,14.388t-15.045,4.892a18.187,18.187,0,0,1-6.687-1.145,14.431,14.431,0,0,1-4.9-3.155,12.863,12.863,0,0,1-3.011-4.788,17.7,17.7,0,0,1-1-6.036c0-.7.021-1.387.077-2.077a14.811,14.811,0,0,1,.3-2.08l.962-5.2q1.859-10.072,7.28-14.68t14.715-4.6q7.57,0,11.63,4.086T437.242,224.081Zm-12.088.89c0-3.754-1.811-5.636-5.413-5.636a7.1,7.1,0,0,0-5.305,2.078q-2.042,2.073-2.93,6.967l-.963,5.2q-.145,1.042-.26,1.889a12.69,12.69,0,0,0-.112,1.673,5.769,5.769,0,0,0,1.335,4.221,5.644,5.644,0,0,0,4.152,1.339,6.644,6.644,0,0,0,5.489-2.3,15.171,15.171,0,0,0,2.672-6.824l.96-5.2A19.783,19.783,0,0,0,425.153,224.971Z" transform="translate(-288.032 -200.574)" fill="#fff"/>
        <path id="Trazado_4" data-name="Trazado 4" d="M410.164,209.943a1.146,1.146,0,0,0-.853-.337H399.294a1.654,1.654,0,0,0-1.075.409,2.385,2.385,0,0,0-.7.994l-10.542,25.485-4.6-25.485a2.364,2.364,0,0,0-.331-.994.939.939,0,0,0-.853-.409h-9.718c-1.139,0-1.7.5-1.7,1.487v.216s8.126,36.4,8.511,37.335c.892,2.149,1.383,2.351,2.358,2.518l-1.228,2.737a7.108,7.108,0,0,1-2.3,3.04,5.914,5.914,0,0,1-3.264.817c-.589,0-1.3-.029-2.113-.077s-1.656-.107-2.526-.188-1.692-.132-2.484-.175-1.483-.1-2.081-.15h-.14a1.626,1.626,0,0,0-1.08.406,1.823,1.823,0,0,0-.629,1l-1.114,6.014v.221a.816.816,0,0,0,.372.7,2.863,2.863,0,0,0,.962.406,14.66,14.66,0,0,0,1.784.447c.735.144,1.534.273,2.369.374s1.7.184,2.563.255,1.646.112,2.341.112a29.986,29.986,0,0,0,6.861-.666,13.255,13.255,0,0,0,4.743-2.109,14.221,14.221,0,0,0,3.457-3.753,52.38,52.38,0,0,0,3.039-5.564l20.174-43.7a2.158,2.158,0,0,0,.152-.59A1.074,1.074,0,0,0,410.164,209.943Z" transform="translate(-296.914 -200.451)" fill="#fff"/>
      </g>
      <path id="Trazado_5" data-name="Trazado 5" d="M280.9,226.653" transform="translate(12.577 6.938)"/>
      <path id="Trazado_6" data-name="Trazado 6" d="M265.729,210.022a18.58,18.58,0,0,0-4.05,1.847c.073-.457.119-.711.119-.711a1.494,1.494,0,0,0-.277-1.057,1.1,1.1,0,0,0-.938-.455H251.6a2.122,2.122,0,0,0-1.136.342,1.609,1.609,0,0,0-.665,1.17s-4.521,25.224-5.592,31.419a14.824,14.824,0,0,1-1.457,4.487,10.946,10.946,0,0,1-6.09,5.339,10,10,0,0,1-2.066.51h12.245a10.943,10.943,0,0,0,8.246-6.037,14.412,14.412,0,0,0,.859-2.621c.121-.536.235-1.1.332-1.677.715-4.262,2.508-13.744,3.763-21.221a24.618,24.618,0,0,1,3.044-1.364,13.6,13.6,0,0,1,4.28-.822l1.729-9.919A21.363,21.363,0,0,0,265.729,210.022Z" transform="translate(1.326 2.709)" fill="url(#linear-gradient)"/>
      <path id="Trazado_7" data-name="Trazado 7" d="M273.2,226.649" transform="translate(10.707 6.937)"/>
      <path id="Trazado_8" data-name="Trazado 8" d="M278.1,252.357c-2.214-.971-5.078-3.449-3.969-9.738.375-2.183,1.176-6.728,2.048-11.7.324-1.811,1.416-8.211,1.416-9.3a14.943,14.943,0,0,0-.983-5.7,11.144,11.144,0,0,0-1.992-3.219c-.208-.234-.421-.46-.646-.668a10.541,10.541,0,0,0-3.894-2.225c-.127-.041-.25-.077-.377-.116a15.128,15.128,0,0,0-4.262-.605,18.9,18.9,0,0,0-2.752.211l-1.729,9.919c.082,0,.165-.012.249-.012a5.066,5.066,0,0,1,2.909.8,3.262,3.262,0,0,1,1.17,2.906,19.924,19.924,0,0,1-.378,3.321s.281-2.02.117-1.045c-1.035,5.856-2.556,14.352-3.1,17.439-.1.582-.179,1.141-.24,1.677-.008.109-.01.213-.016.322-.377,7.775,6.251,8.344,6.469,8.359h11.076l1.124,0A7.585,7.585,0,0,1,278.1,252.357Z" transform="translate(7.732 2.668)" fill="url(#linear-gradient-2)"/>
      <path id="Trazado_9" data-name="Trazado 9" d="M247.883,252.859s-7.994-.521-6.255-10.358c1.059-6.2,5.546-31.419,5.546-31.419a1.15,1.15,0,0,0-.266-1.17,1.57,1.57,0,0,0-1.014-.342h-9.2a1.559,1.559,0,0,0-1.093.457,2.1,2.1,0,0,0-.643,1.054s-4.223,23.944-5.544,31.419c-.1.582-.181,1.141-.24,1.677-.587,8.085,6.23,8.664,6.45,8.681h12.254Z" transform="translate(0 2.786)" fill="url(#linear-gradient-3)"/>
      <path id="Trazado_10" data-name="Trazado 10" d="M293.888,211.8c.078-.461.119-.715.119-.715a1.434,1.434,0,0,0-.28-1.054,1.073,1.073,0,0,0-.935-.457h-8.854a2.11,2.11,0,0,0-1.134.342,1.614,1.614,0,0,0-.663,1.17s-4.544,25.224-5.615,31.419a15.069,15.069,0,0,1-1.454,4.487,10.988,10.988,0,0,1-6.092,5.339,10.051,10.051,0,0,1-2.066.51h12.237A10.939,10.939,0,0,0,287.4,246.8a13.877,13.877,0,0,0,1-2.621q.188-.8.337-1.677c.717-4.262,2.326-13.871,3.582-21.349a27.487,27.487,0,0,1,3.464-1.36v-9.006A18.771,18.771,0,0,0,293.888,211.8Z" transform="translate(9.179 2.786)" fill="url(#linear-gradient-4)"/>
      <path id="Trazado_11" data-name="Trazado 11" d="M297.82,220.808a4.659,4.659,0,0,1,.444,2.1,20.223,20.223,0,0,1-.379,3.321s-.44,2.621-1.018,6.057l-3.242,18.507v.3a1.386,1.386,0,0,0,.3.9,1.086,1.086,0,0,0,.91.378h9.139a1.772,1.772,0,0,0,1.165-.487,2.119,2.119,0,0,0,.718-1.1l.636-3.575,3.648-20.945a26.215,26.215,0,0,0,.455-4.6,14.889,14.889,0,0,0-.986-5.7c-.134-.326-.28-.638-.434-.938a.119.119,0,0,0-.016-.026c-.14-.282-.293-.548-.449-.805-.015-.024-.034-.046-.046-.067-.143-.232-.3-.451-.449-.664-.025-.03-.044-.06-.066-.09-.15-.2-.306-.384-.465-.568-.032-.035-.058-.072-.091-.108-.211-.234-.424-.46-.651-.668a10.551,10.551,0,0,0-3.892-2.225,14.915,14.915,0,0,0-4.639-.721,18.347,18.347,0,0,0-2.751.215l-.01.041.01-.041a20.884,20.884,0,0,0-3.37.767,19.189,19.189,0,0,0-2.157.84v9.006C295.566,218.217,297.436,220.039,297.82,220.808Z" transform="translate(14.822 2.668)" fill="url(#linear-gradient-5)"/>
      <g id="Grupo_2" data-name="Grupo 2" transform="translate(236.315 198.104)">
        <path id="Trazado_12" data-name="Trazado 12" d="M236.1,207.785c-.914,0-1.3-.486-1.152-1.457l1.152-6.768a2.559,2.559,0,0,1,.507-1.018,1.511,1.511,0,0,1,1.227-.438h9.392c.962,0,1.347.487,1.159,1.456l-1.159,6.768a2.587,2.587,0,0,1-.5,1.018,1.512,1.512,0,0,1-1.228.439Z" transform="translate(-234.913 -198.104)" fill="url(#linear-gradient-5)"/>
      </g>
    </g>
    <path id="Trazado_16" data-name="Trazado 16" d="M10.639-.443V-1.478c0-.3-.207-.414-.621-.414H8.364c-1.182,0-1.6-.236-1.6-1.862V-14.068H9.96a.593.593,0,0,0,.591-.591v-1a.593.593,0,0,0-.591-.591H6.768v-3.221a.47.47,0,0,0-.443-.5H6.236L4.7-19.742a.6.6,0,0,0-.532.591v2.9H1.3a.52.52,0,0,0-.562.532v.8c0,.325.236.5.562.532l2.867.325V-3.753c0,3.251,1.3,3.96,4.019,3.96A14.379,14.379,0,0,0,10.107.059C10.492,0,10.639-.177,10.639-.443Zm5.733-19v-2.364a.593.593,0,0,0-.591-.591H14.274a.593.593,0,0,0-.591.591v2.364a.593.593,0,0,0,.591.591h1.507A.593.593,0,0,0,16.373-19.446ZM16.314-.591V-15.664a.593.593,0,0,0-.591-.591H14.3a.593.593,0,0,0-.591.591V-.591A.593.593,0,0,0,14.3,0h1.419A.593.593,0,0,0,16.314-.591ZM30.736-.768V-1.832a.451.451,0,0,0-.5-.443h-.118a28.819,28.819,0,0,1-3.665.207c-2.394,0-3.694-1.6-3.694-4.906V-9.28c0-3.34,1.33-4.906,3.694-4.906a28.819,28.819,0,0,1,3.665.207h.118a.451.451,0,0,0,.5-.443v-1.064c0-.414-.118-.562-.591-.65a21.717,21.717,0,0,0-3.694-.325c-4.049,0-6.295,2.837-6.295,7.182v2.305c0,4.344,2.276,7.182,6.295,7.182a21.434,21.434,0,0,0,3.694-.325C30.618-.207,30.736-.384,30.736-.768Zm14.925.384a.413.413,0,0,0-.089-.266l-6.561-7.92,6.5-7.034a.475.475,0,0,0,.148-.325c0-.177-.148-.325-.443-.325H43.149a.635.635,0,0,0-.591.266l-5.911,6.65V-21.633a.593.593,0,0,0-.591-.591H34.637a.593.593,0,0,0-.591.591V-.591A.593.593,0,0,0,34.637,0h1.419a.593.593,0,0,0,.591-.591V-7.654l5.881,7.27c.236.3.355.384.68.384h2.128A.344.344,0,0,0,45.661-.384ZM60.2-7.95v-1.6c0-4.2-2.187-6.916-6.5-6.916-4.226,0-6.561,2.689-6.561,6.916v2.66c0,5.5,3.31,7.093,6.709,7.093a26.8,26.8,0,0,0,5.29-.5c.473-.089.591-.3.591-.68v-1a.419.419,0,0,0-.473-.414h-.148a40.5,40.5,0,0,1-5.261.325c-2.719,0-4.108-1.3-4.108-4.817V-7.3h9.9C59.994-7.3,60.2-7.566,60.2-7.95Zm-2.63-1.33H49.739v-.266c0-3.192,1.419-4.64,3.96-4.64,2.6,0,3.872,1.3,3.872,4.64ZM71.491-.443V-1.478c0-.3-.207-.414-.621-.414H69.215c-1.182,0-1.6-.236-1.6-1.862V-14.068h3.192a.593.593,0,0,0,.591-.591v-1a.593.593,0,0,0-.591-.591H67.619v-3.221a.47.47,0,0,0-.443-.5h-.089l-1.537.236a.6.6,0,0,0-.532.591v2.9H62.152a.52.52,0,0,0-.562.532v.8c0,.325.236.5.562.532l2.867.325V-3.753c0,3.251,1.3,3.96,4.019,3.96A14.379,14.379,0,0,0,70.959.059C71.343,0,71.491-.177,71.491-.443ZM84.524-4.078c0-1.744-.8-3.014-3.251-4.463l-2.926-1.744c-1.359-.8-2.039-1.359-2.039-2.246,0-1.507,1.093-1.714,2.749-1.714s3.546.148,4.581.236h.089a.452.452,0,0,0,.5-.5v-.975c0-.325-.177-.532-.562-.591a27.69,27.69,0,0,0-4.61-.384c-3.044,0-5.349.857-5.349,3.931,0,1.862,1.212,3.133,3.014,4.226l2.985,1.773c1.685,1,2.217,1.566,2.217,2.453,0,1.6-1,2.1-2.926,2.1-1.064,0-3.221-.148-4.64-.325h-.118a.479.479,0,0,0-.532.443V-.828c0,.325.236.5.621.591A22.923,22.923,0,0,0,79,.207C82.307.207,84.524-1.064,84.524-4.078Z" transform="translate(162.605 224.114)" fill="#fff"/>
  </g>
</svg>
